<svg width="160" height="35" viewBox="0 0 160 35" fill="none" xmlns="http://www.w3.org/2000/svg">
<path d="M14.584 14.48C15.8853 14.7573 16.9307 15.408 17.72 16.432C18.5093 17.4347 18.904 18.5867 18.904 19.888C18.904 21.7653 18.2427 23.2587 16.92 24.368C15.6187 25.456 13.7947 26 11.448 26H0.984V3.536H11.096C13.3787 3.536 15.16 4.05867 16.44 5.104C17.7413 6.14933 18.392 7.568 18.392 9.36C18.392 10.6827 18.04 11.7813 17.336 12.656C16.6533 13.5307 15.736 14.1387 14.584 14.48ZM6.456 12.624H10.04C10.936 12.624 11.6187 12.432 12.088 12.048C12.5787 11.6427 12.824 11.056 12.824 10.288C12.824 9.52 12.5787 8.93333 12.088 8.528C11.6187 8.12267 10.936 7.92 10.04 7.92H6.456V12.624ZM10.488 21.584C11.4053 21.584 12.1093 21.3813 12.6 20.976C13.112 20.5493 13.368 19.9413 13.368 19.152C13.368 18.3627 13.1013 17.744 12.568 17.296C12.056 16.848 11.3413 16.624 10.424 16.624H6.456V21.584H10.488ZM30.2058 26.256C28.4564 26.256 26.8778 25.8827 25.4698 25.136C24.0831 24.3893 22.9844 23.3227 22.1738 21.936C21.3844 20.5493 20.9898 18.928 20.9898 17.072C20.9898 15.2373 21.3951 13.6267 22.2057 12.24C23.0164 10.832 24.1258 9.75467 25.5338 9.008C26.9418 8.26133 28.5204 7.888 30.2698 7.888C32.0191 7.888 33.5978 8.26133 35.0058 9.008C36.4138 9.75467 37.5231 10.832 38.3338 12.24C39.1444 13.6267 39.5498 15.2373 39.5498 17.072C39.5498 18.9067 39.1338 20.528 38.3018 21.936C37.4911 23.3227 36.3711 24.3893 34.9418 25.136C33.5338 25.8827 31.9551 26.256 30.2058 26.256ZM30.2058 21.52C31.2511 21.52 32.1364 21.136 32.8618 20.368C33.6084 19.6 33.9818 18.5013 33.9818 17.072C33.9818 15.6427 33.6191 14.544 32.8938 13.776C32.1898 13.008 31.3151 12.624 30.2698 12.624C29.2031 12.624 28.3178 13.008 27.6138 13.776C26.9098 14.5227 26.5578 15.6213 26.5578 17.072C26.5578 18.5013 26.8991 19.6 27.5818 20.368C28.2858 21.136 29.1604 21.52 30.2058 21.52ZM49.2368 7.888C50.4954 7.888 51.5941 8.144 52.5328 8.656C53.4928 9.168 54.2288 9.84 54.7408 10.672V8.144H60.2128V25.968C60.2128 27.6107 59.8821 29.0933 59.2208 30.416C58.5808 31.76 57.5888 32.8267 56.2448 33.616C54.9221 34.4053 53.2688 34.8 51.2848 34.8C48.6394 34.8 46.4954 34.1707 44.8528 32.912C43.2101 31.6747 42.2714 29.9893 42.0368 27.856H47.4448C47.6154 28.5387 48.0208 29.072 48.6608 29.456C49.3008 29.8613 50.0901 30.064 51.0288 30.064C52.1594 30.064 53.0554 29.7333 53.7168 29.072C54.3994 28.432 54.7408 27.3973 54.7408 25.968V23.44C54.2074 24.272 53.4714 24.9547 52.5328 25.488C51.5941 26 50.4954 26.256 49.2368 26.256C47.7648 26.256 46.4314 25.8827 45.2368 25.136C44.0421 24.368 43.0928 23.2907 42.3888 21.904C41.7061 20.496 41.3648 18.8747 41.3648 17.04C41.3648 15.2053 41.7061 13.5947 42.3888 12.208C43.0928 10.8213 44.0421 9.75467 45.2368 9.008C46.4314 8.26133 47.7648 7.888 49.2368 7.888ZM54.7408 17.072C54.7408 15.7067 54.3568 14.6293 53.5888 13.84C52.8421 13.0507 51.9248 12.656 50.8368 12.656C49.7488 12.656 48.8208 13.0507 48.0528 13.84C47.3061 14.608 46.9328 15.6747 46.9328 17.04C46.9328 18.4053 47.3061 19.4933 48.0528 20.304C48.8208 21.0933 49.7488 21.488 50.8368 21.488C51.9248 21.488 52.8421 21.0933 53.5888 20.304C54.3568 19.5147 54.7408 18.4373 54.7408 17.072ZM72.2995 26.256C70.5502 26.256 68.9715 25.8827 67.5635 25.136C66.1768 24.3893 65.0782 23.3227 64.2675 21.936C63.4782 20.5493 63.0835 18.928 63.0835 17.072C63.0835 15.2373 63.4888 13.6267 64.2995 12.24C65.1102 10.832 66.2195 9.75467 67.6275 9.008C69.0355 8.26133 70.6142 7.888 72.3635 7.888C74.1128 7.888 75.6915 8.26133 77.0995 9.008C78.5075 9.75467 79.6168 10.832 80.4275 12.24C81.2382 13.6267 81.6435 15.2373 81.6435 17.072C81.6435 18.9067 81.2275 20.528 80.3955 21.936C79.5848 23.3227 78.4648 24.3893 77.0355 25.136C75.6275 25.8827 74.0488 26.256 72.2995 26.256ZM72.2995 21.52C73.3448 21.52 74.2302 21.136 74.9555 20.368C75.7022 19.6 76.0755 18.5013 76.0755 17.072C76.0755 15.6427 75.7128 14.544 74.9875 13.776C74.2835 13.008 73.4088 12.624 72.3635 12.624C71.2968 12.624 70.4115 13.008 69.7075 13.776C69.0035 14.5227 68.6515 15.6213 68.6515 17.072C68.6515 18.5013 68.9928 19.6 69.6755 20.368C70.3795 21.136 71.2542 21.52 72.2995 21.52ZM90.0185 11.12C90.6585 10.1387 91.4585 9.37067 92.4185 8.816C93.3785 8.24 94.4452 7.952 95.6185 7.952V13.744H94.1145C92.7492 13.744 91.7252 14.0427 91.0425 14.64C90.3598 15.216 90.0185 16.24 90.0185 17.712V26H84.5465V8.144H90.0185V11.12Z" fill="#00722D"/>
<path d="M114.394 3.536V7.92H108.442V26H102.97V7.92H97.018V3.536H114.394ZM122.612 11.12C123.252 10.1387 124.052 9.37067 125.012 8.816C125.972 8.24 127.039 7.952 128.212 7.952V13.744H126.708C125.343 13.744 124.319 14.0427 123.636 14.64C122.954 15.216 122.612 16.24 122.612 17.712V26H117.14V8.144H122.612V11.12ZM133.58 6.288C132.62 6.288 131.83 6.01067 131.212 5.456C130.614 4.88 130.316 4.176 130.316 3.344C130.316 2.49067 130.614 1.78667 131.212 1.232C131.83 0.655998 132.62 0.367998 133.58 0.367998C134.518 0.367998 135.286 0.655998 135.884 1.232C136.502 1.78667 136.812 2.49067 136.812 3.344C136.812 4.176 136.502 4.88 135.884 5.456C135.286 6.01067 134.518 6.288 133.58 6.288ZM136.3 8.144V26H130.828V8.144H136.3ZM145.737 10.672C146.271 9.84 147.007 9.168 147.945 8.656C148.884 8.144 149.983 7.888 151.241 7.888C152.713 7.888 154.047 8.26133 155.241 9.008C156.436 9.75467 157.375 10.8213 158.057 12.208C158.761 13.5947 159.113 15.2053 159.113 17.04C159.113 18.8747 158.761 20.496 158.057 21.904C157.375 23.2907 156.436 24.368 155.241 25.136C154.047 25.8827 152.713 26.256 151.241 26.256C150.004 26.256 148.905 26 147.945 25.488C147.007 24.976 146.271 24.3147 145.737 23.504V34.512H140.265V8.144H145.737V10.672ZM153.545 17.04C153.545 15.6747 153.161 14.608 152.393 13.84C151.647 13.0507 150.719 12.656 149.609 12.656C148.521 12.656 147.593 13.0507 146.825 13.84C146.079 14.6293 145.705 15.7067 145.705 17.072C145.705 18.4373 146.079 19.5147 146.825 20.304C147.593 21.0933 148.521 21.488 149.609 21.488C150.697 21.488 151.625 21.0933 152.393 20.304C153.161 19.4933 153.545 18.4053 153.545 17.04Z" fill="#FFA800"/>
</svg>
