<svg width="179" height="88" viewBox="0 0 179 88" fill="none" xmlns="http://www.w3.org/2000/svg">
<circle cx="95.9545" cy="3.95455" r="3.95455" fill="#FFA800"/>
<circle cx="111.773" cy="3.95455" r="3.95455" fill="#FFA800"/>
<circle cx="127.591" cy="3.95455" r="3.95455" fill="#FFA800"/>
<circle cx="143.409" cy="3.95455" r="3.95455" fill="#FFA800"/>
<circle cx="159.227" cy="3.95455" r="3.95455" fill="#FFA800"/>
<circle cx="175.045" cy="3.95455" r="3.95455" fill="#FFA800"/>
<circle cx="95.9545" cy="19.7728" r="3.95455" fill="#FFA800"/>
<circle cx="111.773" cy="19.7728" r="3.95455" fill="#FFA800"/>
<circle cx="127.591" cy="19.7728" r="3.95455" fill="#FFA800"/>
<circle cx="143.409" cy="19.7728" r="3.95455" fill="#FFA800"/>
<circle cx="159.227" cy="19.7728" r="3.95455" fill="#FFA800"/>
<circle cx="175.045" cy="19.7728" r="3.95455" fill="#FFA800"/>
<circle cx="95.9545" cy="35.5909" r="3.95455" fill="#FFA800"/>
<circle cx="111.773" cy="35.5909" r="3.95455" fill="#FFA800"/>
<circle cx="127.591" cy="35.5909" r="3.95455" fill="#FFA800"/>
<circle cx="143.409" cy="35.5909" r="3.95455" fill="#FFA800"/>
<circle cx="159.227" cy="35.5909" r="3.95455" fill="#FFA800"/>
<circle cx="175.045" cy="35.5909" r="3.95455" fill="#FFA800"/>
<circle cx="95.9545" cy="51.4091" r="3.95455" fill="#FFA800"/>
<circle cx="111.773" cy="51.4091" r="3.95455" fill="#FFA800"/>
<circle cx="127.591" cy="51.4091" r="3.95455" fill="#FFA800"/>
<circle cx="143.409" cy="51.4091" r="3.95455" fill="#FFA800"/>
<circle cx="159.227" cy="51.4091" r="3.95455" fill="#FFA800"/>
<circle cx="175.045" cy="51.4091" r="3.95455" fill="#FFA800"/>
<circle cx="95.9545" cy="67.2273" r="3.95455" fill="#FFA800"/>
<circle cx="111.773" cy="67.2273" r="3.95455" fill="#FFA800"/>
<circle cx="127.591" cy="67.2273" r="3.95455" fill="#FFA800"/>
<circle cx="143.409" cy="67.2273" r="3.95455" fill="#FFA800"/>
<circle cx="159.227" cy="67.2273" r="3.95455" fill="#FFA800"/>
<circle cx="175.045" cy="67.2273" r="3.95455" fill="#FFA800"/>
<circle cx="95.9545" cy="83.0455" r="3.95455" fill="#FFA800"/>
<circle cx="111.773" cy="83.0455" r="3.95455" fill="#FFA800"/>
<circle cx="127.591" cy="83.0455" r="3.95455" fill="#FFA800"/>
<circle cx="143.409" cy="83.0455" r="3.95455" fill="#FFA800"/>
<circle cx="159.227" cy="83.0455" r="3.95455" fill="#FFA800"/>
<circle cx="175.045" cy="83.0455" r="3.95455" fill="#FFA800"/>
<circle cx="3.95455" cy="4.95455" r="3.95455" fill="#FFA800"/>
<circle cx="19.7727" cy="4.95455" r="3.95455" fill="#FFA800"/>
<circle cx="35.5909" cy="4.95455" r="3.95455" fill="#FFA800"/>
<circle cx="51.4091" cy="4.95455" r="3.95455" fill="#FFA800"/>
<circle cx="67.2273" cy="4.95455" r="3.95455" fill="#FFA800"/>
<circle cx="83.0455" cy="4.95455" r="3.95455" fill="#FFA800"/>
<circle cx="3.95455" cy="20.7728" r="3.95455" fill="#FFA800"/>
<circle cx="19.7727" cy="20.7728" r="3.95455" fill="#FFA800"/>
<circle cx="35.5909" cy="20.7728" r="3.95455" fill="#FFA800"/>
<circle cx="51.4091" cy="20.7728" r="3.95455" fill="#FFA800"/>
<circle cx="67.2273" cy="20.7728" r="3.95455" fill="#FFA800"/>
<circle cx="83.0455" cy="20.7728" r="3.95455" fill="#FFA800"/>
<circle cx="3.95455" cy="36.5909" r="3.95455" fill="#FFA800"/>
<circle cx="19.7727" cy="36.5909" r="3.95455" fill="#FFA800"/>
<circle cx="35.5909" cy="36.5909" r="3.95455" fill="#FFA800"/>
<circle cx="51.4091" cy="36.5909" r="3.95455" fill="#FFA800"/>
<circle cx="67.2273" cy="36.5909" r="3.95455" fill="#FFA800"/>
<circle cx="83.0455" cy="36.5909" r="3.95455" fill="#FFA800"/>
<circle cx="3.95455" cy="52.4091" r="3.95455" fill="#FFA800"/>
<circle cx="19.7727" cy="52.4091" r="3.95455" fill="#FFA800"/>
<circle cx="35.5909" cy="52.4091" r="3.95455" fill="#FFA800"/>
<circle cx="51.4091" cy="52.4091" r="3.95455" fill="#FFA800"/>
<circle cx="67.2273" cy="52.4091" r="3.95455" fill="#FFA800"/>
<circle cx="83.0455" cy="52.4091" r="3.95455" fill="#FFA800"/>
<circle cx="3.95455" cy="68.2273" r="3.95455" fill="#FFA800"/>
<circle cx="19.7727" cy="68.2273" r="3.95455" fill="#FFA800"/>
<circle cx="35.5909" cy="68.2273" r="3.95455" fill="#FFA800"/>
<circle cx="51.4091" cy="68.2273" r="3.95455" fill="#FFA800"/>
<circle cx="67.2273" cy="68.2273" r="3.95455" fill="#FFA800"/>
<circle cx="83.0455" cy="68.2273" r="3.95455" fill="#FFA800"/>
<circle cx="3.95455" cy="84.0455" r="3.95455" fill="#FFA800"/>
<circle cx="19.7727" cy="84.0455" r="3.95455" fill="#FFA800"/>
<circle cx="35.5909" cy="84.0455" r="3.95455" fill="#FFA800"/>
<circle cx="51.4091" cy="84.0455" r="3.95455" fill="#FFA800"/>
<circle cx="67.2273" cy="84.0455" r="3.95455" fill="#FFA800"/>
<circle cx="83.0455" cy="84.0455" r="3.95455" fill="#FFA800"/>
</svg>
