<svg width="62" height="62" viewBox="0 0 62 62" fill="none" xmlns="http://www.w3.org/2000/svg">
<circle cx="2.81818" cy="2.81818" r="2.81818" fill="#FFA800"/>
<circle cx="14.0909" cy="2.81818" r="2.81818" fill="#FFA800"/>
<circle cx="25.3637" cy="2.81818" r="2.81818" fill="#FFA800"/>
<circle cx="36.6364" cy="2.81818" r="2.81818" fill="#FFA800"/>
<circle cx="47.9091" cy="2.81818" r="2.81818" fill="#FFA800"/>
<circle cx="59.1818" cy="2.81818" r="2.81818" fill="#FFA800"/>
<circle cx="2.81818" cy="14.0909" r="2.81818" fill="#FFA800"/>
<circle cx="14.0909" cy="14.0909" r="2.81818" fill="#FFA800"/>
<circle cx="25.3637" cy="14.0909" r="2.81818" fill="#FFA800"/>
<circle cx="36.6364" cy="14.0909" r="2.81818" fill="#FFA800"/>
<circle cx="47.9091" cy="14.0909" r="2.81818" fill="#FFA800"/>
<circle cx="59.1818" cy="14.0909" r="2.81818" fill="#FFA800"/>
<circle cx="2.81818" cy="25.3636" r="2.81818" fill="#FFA800"/>
<circle cx="14.0909" cy="25.3636" r="2.81818" fill="#FFA800"/>
<circle cx="25.3637" cy="25.3636" r="2.81818" fill="#FFA800"/>
<circle cx="36.6364" cy="25.3636" r="2.81818" fill="#FFA800"/>
<circle cx="47.9091" cy="25.3636" r="2.81818" fill="#FFA800"/>
<circle cx="59.1818" cy="25.3636" r="2.81818" fill="#FFA800"/>
<circle cx="2.81818" cy="36.6364" r="2.81818" fill="#FFA800"/>
<circle cx="14.0909" cy="36.6364" r="2.81818" fill="#FFA800"/>
<circle cx="25.3637" cy="36.6364" r="2.81818" fill="#FFA800"/>
<circle cx="36.6364" cy="36.6364" r="2.81818" fill="#FFA800"/>
<circle cx="47.9091" cy="36.6364" r="2.81818" fill="#FFA800"/>
<circle cx="59.1818" cy="36.6364" r="2.81818" fill="#FFA800"/>
<circle cx="2.81818" cy="47.9091" r="2.81818" fill="#FFA800"/>
<circle cx="14.0909" cy="47.9091" r="2.81818" fill="#FFA800"/>
<circle cx="25.3637" cy="47.9091" r="2.81818" fill="#FFA800"/>
<circle cx="36.6364" cy="47.9091" r="2.81818" fill="#FFA800"/>
<circle cx="47.9091" cy="47.9091" r="2.81818" fill="#FFA800"/>
<circle cx="59.1818" cy="47.9091" r="2.81818" fill="#FFA800"/>
<circle cx="2.81818" cy="59.1818" r="2.81818" fill="#FFA800"/>
<circle cx="14.0909" cy="59.1818" r="2.81818" fill="#FFA800"/>
<circle cx="25.3637" cy="59.1818" r="2.81818" fill="#FFA800"/>
<circle cx="36.6364" cy="59.1818" r="2.81818" fill="#FFA800"/>
<circle cx="47.9091" cy="59.1818" r="2.81818" fill="#FFA800"/>
<circle cx="59.1818" cy="59.1818" r="2.81818" fill="#FFA800"/>
</svg>
