<svg width="29" height="30" viewBox="0 0 29 30" fill="none" xmlns="http://www.w3.org/2000/svg">
<path d="M3.75435 9.16383C3.81031 7.94117 4.00175 7.15262 4.26065 6.48326L4.26414 6.47402C4.5207 5.79289 4.9226 5.17585 5.44189 4.66585L5.44918 4.6587L5.45633 4.65141C5.96676 4.13146 6.58401 3.72994 7.26454 3.47406L7.27628 3.46957C7.94411 3.20986 8.73112 3.01913 9.9548 2.96319M3.75435 9.16383C3.69553 10.4702 3.68054 10.8751 3.68054 14.2622C3.68054 17.6501 3.69471 18.0541 3.75432 19.3608M3.75435 9.16383L3.75435 9.49336M4.2652 22.0511C4.52108 22.7316 4.9226 23.3488 5.44255 23.8593L5.44982 23.8664L5.45697 23.8737C5.967 24.393 6.58405 24.7949 7.26518 25.0515L7.27535 25.0553C7.94379 25.3146 8.73118 25.5053 9.9548 25.5613M4.2652 22.0511L4.26071 22.0393C4.001 21.3715 3.81027 20.5845 3.75432 19.3608M4.2652 22.0511L4.24986 21.9703M3.75432 19.3608L3.77436 19.4663M3.75432 19.3608L3.75433 19.0304M4.24986 21.9703L3.77436 19.4663M4.24986 21.9703C4.04791 21.4367 3.83996 20.6924 3.77436 19.4663M4.24986 21.9703C4.25694 21.989 4.26402 22.0074 4.27108 22.0257C4.52719 22.7161 4.93298 23.3412 5.4593 23.8562C5.97408 24.3824 6.59901 24.7882 7.2892 25.0442C7.8431 25.26 8.62357 25.4855 9.95461 25.5465C11.2979 25.6076 11.7129 25.6201 15.0534 25.6201C18.3939 25.6201 18.8092 25.6076 20.1525 25.5464C21.4852 25.4854 22.2647 25.2586 22.8167 25.0446C23.5073 24.7886 24.1325 24.3827 24.6475 23.8562C25.1736 23.3414 25.5793 22.7165 25.8354 22.0264C26.0512 21.4725 26.2766 20.692 26.3376 19.361C26.3987 18.0177 26.4112 17.6019 26.4112 14.2622C26.4112 10.9226 26.3987 10.5064 26.3376 9.16313C26.2762 7.82347 26.0474 7.04276 25.8324 6.49032C25.5512 5.7645 25.1946 5.21556 24.6466 4.66751C24.0997 4.12163 23.5522 3.76488 22.8258 3.48345C22.2714 3.26669 21.4902 3.03931 20.1525 2.97801C20.0362 2.97272 19.9268 2.96779 19.8219 2.9632M3.77436 19.4663C3.77251 19.4317 3.77077 19.3967 3.76915 19.3613C3.76385 19.2449 3.75892 19.1354 3.75433 19.0304M9.9548 2.96319C11.2615 2.90357 11.6663 2.8894 15.0534 2.8894C18.4404 2.8894 18.8451 2.90438 20.1514 2.9632M9.9548 2.96319L10.2852 2.96319M20.1514 2.9632L19.8219 2.9632M20.1514 2.9632C21.3743 3.01913 22.1629 3.21055 22.8324 3.46948L22.8416 3.473C23.5227 3.72956 24.1397 4.13147 24.6497 4.65075L24.6568 4.65797L24.664 4.66505C25.1834 5.1751 25.5853 5.7923 25.8416 6.47362L25.846 6.48514C26.1057 7.15297 26.2965 7.93998 26.3524 9.16366M10.2852 2.96319L19.8219 2.9632M10.2852 2.96319C11.3916 2.91481 12.0032 2.90439 15.0534 2.90439C18.1038 2.90439 18.7152 2.91481 19.8219 2.9632M10.2852 2.96319C10.1802 2.96778 10.0707 2.97271 9.95426 2.97801C8.62155 3.03909 7.842 3.26582 7.29007 3.4799C6.59689 3.73686 5.96953 4.14481 5.45348 4.6742C4.91054 5.21937 4.55517 5.76569 4.27462 6.4897C4.05786 7.0441 3.83044 7.82571 3.76913 9.16348C3.76385 9.27953 3.75893 9.38867 3.75435 9.49336M26.3524 19.3608C26.2965 20.5844 26.1057 21.3718 25.8465 22.0403L25.8426 22.0504C25.586 22.7316 25.1841 23.3486 24.6648 23.8586L24.6576 23.8658L24.6504 23.8731C24.14 24.393 23.5227 24.7945 22.8422 25.0504L22.8305 25.0549C22.1626 25.3146 21.3756 25.5053 20.1519 25.5613M3.75433 19.0304C3.70594 17.924 3.69553 17.3124 3.69553 14.2622C3.69553 11.2111 3.70594 10.6004 3.75435 9.49336M3.75433 19.0304L3.75435 9.49336M13.0306 19.1456C13.6719 19.4112 14.3593 19.5479 15.0534 19.5479C16.4552 19.5479 17.7997 18.991 18.7909 17.9998C19.7822 17.0085 20.339 15.6641 20.339 14.2622C20.339 12.8604 19.7822 11.516 18.7909 10.5247C17.7997 9.53344 16.4552 8.97656 15.0534 8.97656C14.3593 8.97656 13.6719 9.11328 13.0306 9.37891C12.3894 9.64454 11.8067 10.0339 11.3158 10.5247C10.825 11.0155 10.4357 11.5982 10.1701 12.2395C9.90443 12.8808 9.76771 13.5681 9.76771 14.2622C9.76771 14.9564 9.90443 15.6437 10.1701 16.285C10.4357 16.9263 10.825 17.5089 11.3158 17.9998C11.8067 18.4906 12.3894 18.8799 13.0306 19.1456ZM11.3041 10.5129C12.2984 9.51854 13.6471 8.95991 15.0534 8.95991C16.4596 8.95991 17.8083 9.51854 18.8027 10.5129C19.7971 11.5073 20.3557 12.856 20.3557 14.2622C20.3557 15.6685 19.7971 17.0172 18.8027 18.0115C17.8083 19.0059 16.4596 19.5646 15.0534 19.5646C13.6471 19.5646 12.2984 19.0059 11.3041 18.0115C10.3097 17.0172 9.75105 15.6685 9.75105 14.2622C9.75105 12.856 10.3097 11.5073 11.3041 10.5129ZM23.3414 7.72541C23.3414 8.1279 23.1815 8.51392 22.8969 8.79853C22.6123 9.08314 22.2263 9.24303 21.8238 9.24303C21.4213 9.24303 21.0353 9.08314 20.7507 8.79853C20.466 8.51392 20.3062 8.1279 20.3062 7.72541C20.3062 7.32291 20.466 6.93689 20.7507 6.65228C21.0353 6.36767 21.4213 6.20778 21.8238 6.20778C22.2263 6.20778 22.6123 6.36767 22.8969 6.65228C23.1815 6.93689 23.3414 7.32291 23.3414 7.72541Z" stroke="black" stroke-width="1.94699" stroke-linejoin="round"/>
</svg>
