<svg width="27" height="27" viewBox="0 0 27 27" fill="none" xmlns="http://www.w3.org/2000/svg">
<path fill-rule="evenodd" clip-rule="evenodd" d="M10.3895 8.29147C10.1725 7.79668 9.9315 7.78466 9.72651 7.78466C9.54556 7.77264 9.35188 7.77264 9.14689 7.77264C8.95463 7.77264 8.62877 7.84474 8.35168 8.14657C8.07389 8.44769 7.31472 9.15949 7.31472 10.6184C7.31472 12.0781 8.37571 13.489 8.52062 13.6819C8.66482 13.8749 10.5705 16.9617 13.5859 18.1563C16.0939 19.1452 16.6007 18.9522 17.1435 18.8915C17.6857 18.8314 18.8923 18.1804 19.1453 17.4806C19.3864 16.7935 19.3864 16.1906 19.3143 16.0697C19.2422 15.9495 19.0365 15.8767 18.7474 15.7198C18.4456 15.5756 16.9986 14.8518 16.7215 14.7549C16.4437 14.6588 16.2508 14.6108 16.0578 14.8999C15.8648 15.2017 15.2979 15.8647 15.1177 16.0577C14.948 16.2507 14.7678 16.2747 14.478 16.1298C14.1769 15.9856 13.224 15.6717 12.0902 14.6588C11.2095 13.8742 10.6186 12.898 10.4376 12.6089C10.2694 12.3071 10.4136 12.1502 10.5705 12.0053C10.7034 11.8731 10.8723 11.6561 11.0172 11.4872C11.1614 11.3175 11.2095 11.1853 11.3183 10.9924C11.4145 10.7994 11.3664 10.6184 11.2943 10.4742C11.2215 10.3414 10.6553 8.8824 10.3895 8.29147Z" stroke="black" stroke-width="1.94699" stroke-linejoin="round"/>
</svg>
