<svg width="31" height="30" viewBox="0 0 31 30" fill="none" xmlns="http://www.w3.org/2000/svg">
<g clip-path="url(#clip0_11_277)">
<path fill-rule="evenodd" clip-rule="evenodd" d="M26.6316 5.56789C27.814 5.8844 28.7433 6.81359 29.0598 7.99598C29.6317 10.1369 29.634 14.6065 29.634 14.6065C29.634 14.6065 29.634 19.0761 29.0598 21.2171C28.7433 22.3995 27.814 23.3287 26.6316 23.6451C24.4908 24.2194 15.902 24.2194 15.902 24.2194C15.902 24.2194 7.31327 24.2194 5.1723 23.6451C3.98992 23.3287 3.06073 22.3995 2.74422 21.2171C2.16998 19.0761 2.16998 14.6065 2.16998 14.6065C2.16998 14.6065 2.16998 10.1369 2.74422 7.99598C3.06073 6.81359 3.98992 5.8844 5.1723 5.56789C7.31327 4.99365 15.902 4.99365 15.902 4.99365C15.902 4.99365 24.4908 4.99365 26.6316 5.56789ZM20.288 14.6069L13.153 18.726V10.4877L20.288 14.6069Z" stroke="#121C20" stroke-width="1.94699" stroke-linejoin="round"/>
</g>
<defs>
<clipPath id="clip0_11_277">
<rect width="29.9608" height="29.9608" fill="white" transform="translate(0.92157)"/>
</clipPath>
</defs>
</svg>
